<?xml version="1.0" encoding="UTF-8"?>
<svg id="Layer_1" data-name="Layer 1" xmlns="http://www.w3.org/2000/svg" xmlns:xlink="http://www.w3.org/1999/xlink" viewBox="0 0 841.89 595.28">
  <defs>
    <style>
      .cls-1 {
        fill: url(#linear-gradient-12);
      }

      .cls-1, .cls-2, .cls-3, .cls-4, .cls-5, .cls-6, .cls-7, .cls-8, .cls-9, .cls-10, .cls-11, .cls-12, .cls-13, .cls-14, .cls-15, .cls-16, .cls-17, .cls-18 {
        stroke-width: 0px;
      }

      .cls-2 {
        fill: url(#linear-gradient);
      }

      .cls-3 {
        fill: url(#linear-gradient-16);
      }

      .cls-3, .cls-5 {
        fill-rule: evenodd;
      }

      .cls-4 {
        fill: url(#linear-gradient-6);
      }

      .cls-5 {
        fill: #00984a;
      }

      .cls-6 {
        fill: url(#linear-gradient-15);
      }

      .cls-7 {
        fill: url(#linear-gradient-11);
      }

      .cls-8 {
        fill: url(#linear-gradient-5);
      }

      .cls-9 {
        fill: url(#linear-gradient-13);
      }

      .cls-10 {
        fill: #fff;
      }

      .cls-11 {
        fill: url(#linear-gradient-14);
      }

      .cls-12 {
        fill: url(#linear-gradient-2);
      }

      .cls-13 {
        fill: url(#linear-gradient-7);
      }

      .cls-14 {
        fill: url(#linear-gradient-3);
      }

      .cls-15 {
        fill: url(#linear-gradient-9);
      }

      .cls-16 {
        fill: url(#linear-gradient-8);
      }

      .cls-17 {
        fill: url(#linear-gradient-10);
      }

      .cls-18 {
        fill: url(#linear-gradient-4);
      }
    </style>
    <linearGradient id="linear-gradient" x1="49.8" y1="341.1" x2="49.8" y2="428.5" gradientUnits="userSpaceOnUse">
      <stop offset="0" stop-color="#1f79dc"/>
      <stop offset=".97" stop-color="#034ea0"/>
    </linearGradient>
    <linearGradient id="linear-gradient-2" x1="85.65" y1="341.1" x2="85.65" y2="428.5" xlink:href="#linear-gradient"/>
    <linearGradient id="linear-gradient-3" x1="144.49" y1="341.1" x2="144.49" y2="428.5" xlink:href="#linear-gradient"/>
    <linearGradient id="linear-gradient-4" x1="197.32" y1="341.1" x2="197.32" y2="428.5" xlink:href="#linear-gradient"/>
    <linearGradient id="linear-gradient-5" x1="260.72" y1="341.1" x2="260.72" y2="428.5" xlink:href="#linear-gradient"/>
    <linearGradient id="linear-gradient-6" x1="350.14" y1="341.1" x2="350.14" y2="428.5" xlink:href="#linear-gradient"/>
    <linearGradient id="linear-gradient-7" x1="405.98" y1="341.1" x2="405.98" y2="428.5" xlink:href="#linear-gradient"/>
    <linearGradient id="linear-gradient-8" x1="455.52" y1="341.1" x2="455.52" y2="428.5" xlink:href="#linear-gradient"/>
    <linearGradient id="linear-gradient-9" x1="490.55" y1="341.1" x2="490.55" y2="428.5" xlink:href="#linear-gradient"/>
    <linearGradient id="linear-gradient-10" x1="572.04" y1="341.1" x2="572.04" y2="428.5" xlink:href="#linear-gradient"/>
    <linearGradient id="linear-gradient-11" x1="619.74" y1="341.1" x2="619.74" y2="428.5" xlink:href="#linear-gradient"/>
    <linearGradient id="linear-gradient-12" x1="675.82" y1="341.1" x2="675.82" y2="428.5" xlink:href="#linear-gradient"/>
    <linearGradient id="linear-gradient-13" x1="725.86" y1="341.1" x2="725.86" y2="428.5" xlink:href="#linear-gradient"/>
    <linearGradient id="linear-gradient-14" x1="783.83" y1="341.1" x2="783.83" y2="428.5" xlink:href="#linear-gradient"/>
    <linearGradient id="linear-gradient-15" x1="420.94" y1="421.89" x2="420.94" y2="468.12" xlink:href="#linear-gradient"/>
    <linearGradient id="linear-gradient-16" x1="335.02" y1="132.58" x2="541.28" y2="368.2" gradientUnits="userSpaceOnUse">
      <stop offset="0" stop-color="#1f79dc"/>
      <stop offset="1" stop-color="#034ea0"/>
    </linearGradient>
  </defs>
  <g>
    <path class="cls-2" d="M67.48,363.02c.88,0,1.73-.17,2.55-.51s1.34-.82,1.56-1.44h1.89l-3.29,11.93c-.55,1.66-2.16,2.49-4.85,2.49h-4.85l-9.21,37.1c-.11.52.14,1.05.74,1.6s1.21.82,1.81.82l-.58,1.79h-22.86c-1.75,0-2.63-.83-2.63-2.49,0-.21.06-.62.16-1.25l9.29-37.57h-5.67c-.88,0-1.6.19-2.18.58s-.97.9-1.19,1.52h-2.06l3.29-12.47c.22-.73.66-1.26,1.32-1.6s1.7-.51,3.12-.51h33.63Z"/>
    <path class="cls-12" d="M93.63,416.79c-1.42,0-2.48-.22-3.17-.66s-1.08-1.21-1.19-2.3l-.74-7.95h-9.54l-3.37,6.39c-.06.16-.08.28-.08.39s-.03.31-.08.62c0,.47.23.87.7,1.21s1,.51,1.6.51l-.41,1.79h-17.84c-2.3,0-3.45-.86-3.45-2.57,0-.47.14-.96.41-1.48l24.17-44.42c.16-.31.25-.7.25-1.17,0-.57-.26-1.1-.78-1.6s-1.08-.74-1.69-.74l.49-1.79h24.5c1.26,0,2.33.32,3.21.97s1.32,1.57,1.32,2.77l3.78,45.52c0,.67.38,1.3,1.15,1.87.77.57,1.56.86,2.38.86l-.41,1.79h-21.21ZM83.84,395.44h4.69l-.66-8.73-4.03,8.73Z"/>
    <path class="cls-14" d="M162.53,362.94c3.67,0,6.51.91,8.51,2.73,2,1.82,3,4.1,3,6.86,0,.42-.04.88-.12,1.4s-.15.91-.21,1.17c-1.26,5.72-3.84,9.17-7.73,10.37,1.59.94,2.75,1.96,3.49,3.08.74,1.12,1.11,2.76,1.11,4.95,0,1.98-.41,4.73-1.23,8.26-1.42,5.87-3.62,9.9-6.58,12.08-2.69,1.98-6.82,2.96-12.41,2.96h-32.64c-.93,0-1.63-.25-2.1-.74s-.7-1.16-.7-1.99c0-.31.06-.73.16-1.25l11.18-45.59c.11-.57-.11-1.12-.66-1.64-.55-.52-1.15-.78-1.81-.78l.49-1.79,38.23-.08ZM143.21,404.71c1.48,0,2.51-.32,3.08-.97s1.14-2.12,1.69-4.4c.38-1.45.58-2.65.58-3.59,0-1.77-1.01-2.65-3.04-2.65h-2.3l-2.8,11.61h2.8ZM149.05,382.74c.93,0,1.59-.25,1.97-.74s.74-1.39,1.07-2.69.49-2.23.49-2.81c0-1.35-.8-2.03-2.38-2.03h-2.47l-1.97,8.26h3.29Z"/>
    <path class="cls-18" d="M205.3,416.79c-1.42,0-2.48-.22-3.17-.66s-1.08-1.21-1.19-2.3l-.74-7.95h-9.54l-3.37,6.39c-.06.16-.08.28-.08.39s-.03.31-.08.62c0,.47.23.87.7,1.21s1,.51,1.6.51l-.41,1.79h-17.84c-2.3,0-3.45-.86-3.45-2.57,0-.47.14-.96.41-1.48l24.17-44.42c.16-.31.25-.7.25-1.17,0-.57-.26-1.1-.78-1.6s-1.08-.74-1.69-.74l.49-1.79h24.5c1.26,0,2.33.32,3.21.97.88.65,1.32,1.57,1.32,2.77l3.78,45.52c0,.67.38,1.3,1.15,1.87s1.56.86,2.38.86l-.41,1.79h-21.21ZM195.51,395.44h4.69l-.66-8.73-4.03,8.73Z"/>
    <path class="cls-8" d="M257.02,393.1l-4.69,19.17-.08.62c0,.57.27,1.06.82,1.48s1.12.62,1.73.62l-.41,1.79h-22.94c-1.81,0-2.71-.83-2.71-2.49,0-.26.06-.7.16-1.33l11.26-45.75c.11-.52-.14-1.05-.74-1.6-.6-.55-1.21-.82-1.81-.82l.58-1.79h22.86c1.75,0,2.63.83,2.63,2.49,0,.21-.06.62-.16,1.25l-3.95,15.98h5.84l3.78-15.51c.11-.52-.11-1.05-.66-1.6s-1.12-.82-1.73-.82l.41-1.79h22.86c.93,0,1.6.22,2.01.66s.62,1.08.62,1.91l-.16,1.17-11.18,45.83c-.11.52.14,1.05.74,1.6.6.55,1.21.82,1.81.82l-.58,1.79h-22.86c-1.75,0-2.63-.83-2.63-2.49,0-.21.06-.62.16-1.25l4.85-19.95h-5.84Z"/>
    <path class="cls-4" d="M363.59,381.1c4.11,0,7.34,1.06,9.7,3.2,2.36,2.13,3.54,5.2,3.54,9.19,0,2.13-.33,4.47-.99,7.02-.66,2.54-1.45,4.91-2.38,7.09-1.54,3.64-3.58,6.08-6.13,7.33-2.55,1.25-6.26,1.87-11.14,1.87h-33.3c-.93,0-1.63-.25-2.1-.74s-.7-1.16-.7-1.99c0-.31.06-.73.16-1.25l11.18-45.59c.11-.57-.11-1.12-.66-1.64s-1.15-.78-1.81-.78l.49-1.79h50.73l-2.3,8.57c-.27,1.04-1.04,1.88-2.3,2.53-1.26.65-2.52.97-3.78.97h-19.07l-1.48,6h12.33ZM345.66,404.32h2.71c1.32,0,2.26-.39,2.84-1.17.58-.78,1.19-2.39,1.85-4.83.33-1.35.49-2.47.49-3.35,0-1.71-.85-2.57-2.55-2.57h-2.47l-2.88,11.93Z"/>
    <path class="cls-13" d="M418.19,363.02c4.82,0,8.8,1.18,11.92,3.55,3.12,2.37,4.69,5.7,4.69,10.02,0,1.56-.19,3.07-.58,4.52l-4.93,19.79c-1.42,5.87-3.89,10.05-7.4,12.55-3.07,2.23-7.29,3.35-12.66,3.35h-16.86c-5.15,0-8.98-1.1-11.47-3.31s-3.74-5.47-3.74-9.78c0-2.54.36-5.2,1.07-7.95l3.62-14.73c1.42-5.66,3.48-9.9,6.17-12.71,3.45-3.53,8.3-5.3,14.55-5.3h15.62ZM400.43,400.11c-.16.73-.25,1.35-.25,1.87,0,1.3.77,1.95,2.3,1.95,1.04,0,1.82-.22,2.34-.66s.92-1.24,1.19-2.38l5.43-21.9c.11-.62.16-1.04.16-1.25,0-1.51-.8-2.26-2.38-2.26-1.75,0-2.93,1.04-3.54,3.12l-5.26,21.51Z"/>
    <path class="cls-16" d="M453.88,410.87c-.16.57-.25,1.14-.25,1.71,0,.62.31,1.18.95,1.68.63.49,1.27.74,1.93.74l-.41,1.79h-23.35c-.93,0-1.63-.25-2.1-.74s-.7-1.16-.7-1.99c0-.31.06-.73.16-1.25l11.18-45.59c.11-.57-.11-1.12-.66-1.64s-1.15-.78-1.81-.78l.49-1.79h41.77l-2.14,8.73c-.27,1.14-.89,2.05-1.85,2.73s-2.07,1.01-3.33,1.01h-11.35l-8.55,35.38Z"/>
    <path class="cls-15" d="M514.07,401.91c.27,1.61,1.04,2.42,2.3,2.42h2.06l-2.14,8.89c-.38,1.51-1.15,2.52-2.3,3.04-.88.36-2.33.55-4.36.55h-43.58c-2.25,0-3.37-.86-3.37-2.57l.16-1.25,2.06-8.65h2.22c.77,0,1.44-.22,2.01-.66s1-.97,1.27-1.6l16.61-33.67.16-1.4c0-.62-.22-1.14-.66-1.56s-.99-.62-1.64-.62l.41-1.79h19.9c1.15,0,2.12.3,2.92.9.8.6,1.25,1.34,1.36,2.22l4.6,35.77ZM491.79,394.5l-4.03,9.82h4.69l-.66-9.82Z"/>
    <path class="cls-17" d="M570.4,410.87c-.16.57-.25,1.14-.25,1.71,0,.62.31,1.18.95,1.68s1.27.74,1.93.74l-.41,1.79h-23.35c-.93,0-1.63-.25-2.1-.74s-.7-1.16-.7-1.99c0-.31.06-.73.16-1.25l11.18-45.59c.11-.57-.11-1.12-.66-1.64s-1.15-.78-1.81-.78l.49-1.79h41.77l-2.14,8.73c-.27,1.14-.89,2.05-1.85,2.73-.96.67-2.07,1.01-3.33,1.01h-11.35l-8.55,35.38Z"/>
    <path class="cls-7" d="M635.11,363.02c5.04,0,8.85.96,11.43,2.88,2.58,1.92,3.86,4.96,3.86,9.12,0,1.14-.06,2.18-.16,3.12-.11.94-.36,2.1-.74,3.51-1.75,7.17-3.73,11.91-5.92,14.22-2.19,2.31-5.78,3.47-10.77,3.47h-16.94l-3.04,12.24-.25,1.48c0,.57.25,1.04.74,1.4s1.07.55,1.73.55l-.49,1.79h-22.69c-.93,0-1.63-.25-2.1-.74s-.7-1.16-.7-1.99c0-.31.06-.73.16-1.25l11.18-45.59c.11-.57-.11-1.12-.66-1.64s-1.15-.78-1.81-.78l.49-1.79h36.67ZM619,386.87h2.55c1.37,0,2.38-.4,3.04-1.21.66-.81,1.26-2.35,1.81-4.64.33-1.35.49-2.42.49-3.2,0-1.04-.23-1.75-.7-2.14s-1.17-.58-2.1-.58h-2.22l-2.88,11.77Z"/>
    <path class="cls-1" d="M652.14,367.46c-.22-.67-.62-1.29-1.19-1.83s-1.19-.82-1.85-.82l.49-1.79h20.56c.77,0,1.56.36,2.38,1.09s1.37,1.61,1.64,2.65l3.45,13.48,6-10.52c.44-.57.66-1.3.66-2.18,0-.73-.26-1.36-.78-1.91-.52-.55-1.11-.82-1.77-.82l.41-1.79h17.19c.88,0,1.63.27,2.26.82s.95,1.16.95,1.83c0,.83-.16,1.48-.49,1.95l-27.38,45.52c-1.48,2.44-3.92,3.66-7.32,3.66h-10.2c-1.1,0-2.04-.4-2.84-1.21s-1.19-1.57-1.19-2.3c0-.94.11-1.84.33-2.73l1.48-6.24h3.04c2.19,0,3.73-.88,4.6-2.65l.58-1.17-11.02-33.04Z"/>
    <path class="cls-9" d="M726.64,375.1l-8.96,36.47-.25,1.48c0,.57.25,1.04.74,1.4s1.07.55,1.73.55l-.49,1.79h-22.69c-.93,0-1.63-.25-2.1-.74s-.7-1.16-.7-1.99c0-.31.06-.73.16-1.25l11.18-45.59c.11-.57-.11-1.12-.66-1.64s-1.15-.78-1.81-.78l.49-1.79h51.39c2.08,0,3.12,1.01,3.12,3.04,0,.42-.03.73-.08.94l-11.18,45.59c-.11.52.14,1.05.74,1.6s1.21.82,1.81.82l-.58,1.79h-22.28c-2.08,0-3.12-.94-3.12-2.81,0-.42.03-.73.08-.94l9.29-37.96h-5.84Z"/>
    <path class="cls-11" d="M784.61,375.1l-8.96,36.47-.25,1.48c0,.57.25,1.04.74,1.4s1.07.55,1.73.55l-.49,1.79h-22.69c-.93,0-1.63-.25-2.1-.74s-.7-1.16-.7-1.99c0-.31.06-.73.16-1.25l11.18-45.59c.11-.57-.11-1.12-.66-1.64s-1.15-.78-1.81-.78l.49-1.79h51.39c2.08,0,3.12,1.01,3.12,3.04,0,.42-.03.73-.08.94l-11.18,45.59c-.11.52.14,1.05.74,1.6s1.21.82,1.81.82l-.58,1.79h-22.28c-2.08,0-3.12-.94-3.12-2.81,0-.42.03-.73.08-.94l9.29-37.96h-5.84Z"/>
  </g>
  <path class="cls-6" d="M124.78,458.58l12.47-13.8-7.39-13.5h3.85l3.37,6.18c1.21,2.21,2.06,3.88,2.55,5.03.85-1.2,2.21-2.83,4.08-4.9l5.74-6.31h4.56l-12.63,14.1,7.15,13.2h-3.79s-4.23-8-4.23-8c-.4-.78-.88-1.78-1.44-3.01-.6.83-1.39,1.79-2.36,2.88l-7.29,8.12h-4.63ZM164.19,456.12c-2.07,1.94-4.24,2.9-6.52,2.9-1.7,0-3.1-.52-4.2-1.56-1.1-1.04-1.65-2.42-1.65-4.13,0-2.04.71-3.61,2.14-4.71,1.47-1.14,3.62-1.71,6.45-1.71l1.71-.08c.81,0,1.53-.06,2.16-.18.64-.11,1.16-.27,1.58-.47.25-.92.38-1.72.38-2.38,0-.78-.35-1.42-1.04-1.93-.7-.5-1.71-.76-3.04-.76-2.66,0-4.4,1.2-5.23,3.61l-3.26-.3c1.35-4.05,4.23-6.07,8.62-6.07,2.12,0,3.83.47,5.15,1.42,1.32.94,1.98,2.18,1.98,3.72,0,1.05-.15,2.28-.44,3.67l-1.05,4.91c-.17.85-.29,1.56-.38,2.14-.09.58-.13,1.13-.13,1.62,0,.88.13,1.8.4,2.74h-3.26c-.11-.35-.19-.73-.27-1.16-.07-.42-.11-.86-.11-1.3h0ZM165.38,448.56c-.77.29-1.81.51-3.11.65l-1.85.18c-1.05,0-1.96.13-2.74.39-.69.22-1.23.53-1.61.93-.69.69-1.03,1.51-1.03,2.46s.32,1.7.95,2.32c.63.62,1.5.92,2.59.92,1.54,0,2.95-.57,4.21-1.7,1.26-1.12,2.13-3.18,2.59-6.16h0ZM175.7,438.81h4.79l1.78,15.77,8.79-15.77h4.7l-4.04,19.77h-3.19l3.3-15.94-8.87,15.94h-2.86l-1.87-16.55-3.38,16.55h-3.19l4.06-19.77h0ZM196.65,458.58l3.95-19.77h3.23l-.66,3.25c2.01-2.47,4.09-3.7,6.24-3.7,1.25,0,2.26.31,3.03.93.74.58,1.25,1.51,1.53,2.77.94-1.21,1.95-2.14,3.03-2.76,1.08-.63,2.2-.94,3.37-.94,1.56,0,2.73.38,3.53,1.12.8.75,1.2,1.87,1.2,3.36,0,.65-.14,1.65-.41,3l-2.55,12.74h-3.22l2.6-13.07c.11-.55.19-1,.25-1.37.06-.38.09-.68.09-.92,0-.69-.19-1.21-.56-1.56-.38-.35-.94-.52-1.68-.52-1.09,0-2.17.37-3.21,1.11-1.05.74-1.81,1.62-2.3,2.64-.43.97-.83,2.34-1.21,4.11l-1.93,9.59h-3.22l2.68-13.35c.19-.95.29-1.6.29-1.93,0-.67-.21-1.2-.61-1.58-.4-.39-.9-.58-1.48-.58-.55,0-1.09.1-1.61.28-.53.18-1.07.48-1.62.88-1.05.76-1.85,1.7-2.38,2.83-.49,1.06-.91,2.43-1.27,4.11l-1.87,9.35h-3.22ZM249.79,438.81h3.26l-4.09,19.77h-3.24l4.08-19.77h0ZM231.13,438.81h3.22l-1.62,7.64h3.44c2.18,0,3.74.17,4.68.5.93.34,1.67.95,2.21,1.84.55.89.82,1.87.82,2.97,0,.66-.09,1.3-.27,1.92-.18.62-.46,1.25-.84,1.86-.71,1.19-1.61,2-2.68,2.41-1.07.41-2.74.62-5,.62h-8.05l4.08-19.77h0ZM230.79,455.9h4.11c1.59,0,2.72-.11,3.39-.34.67-.22,1.23-.63,1.68-1.23.45-.6.67-1.31.67-2.14,0-.76-.2-1.4-.6-1.91-.4-.52-.86-.83-1.38-.94-.24-.05-.61-.09-1.1-.13-.49-.04-1.07-.06-1.74-.06h-3.67l-1.37,6.74h0ZM257.95,438.81h3.19l-1.71,8.24h8.79l1.67-8.24h3.15l-3.98,19.77h-3.21l1.83-8.85h-8.75l-1.83,8.85h-3.19l4.04-19.77h0ZM282.88,458.58l8.24-10.03-4.73-9.74h3.56l1.61,3.51c.69,1.56,1.22,2.83,1.6,3.78l5.46-7.3h3.94l-7.94,10,4.77,9.77h-3.57s-1.89-4.02-1.89-4.02c-.24-.52-.46-1.01-.66-1.47-.15-.34-.38-.91-.71-1.72l-5.63,7.21h-4.04ZM307.18,458.58l-3.12-19.77h3.12l1.64,10.89c.17,1.09.39,3.04.66,5.83.61-1.43,1.41-3.04,2.36-4.83l6.33-11.89h3.41l-10.83,19.77-2.24,7.82-3.27.08,1.95-7.9h0ZM323.56,438.81h3.17l-.67,3.31c-.43,2.08-.64,3.55-.64,4.41s.32,1.51.94,1.96c.63.45,1.58.67,2.83.67,1.52,0,2.93-.28,4.24-.83l1.95-9.51h3.2l-4.03,19.77h-3.22l1.55-7.58c-1.61.55-3.1.83-4.49.83-1.91,0-3.42-.43-4.53-1.28-1.11-.86-1.67-2.07-1.67-3.65,0-.66.29-2.49.86-5.49l.52-2.61h0ZM349.96,450.39l.68-3.37h9.83l-.66,3.37h-9.85ZM370.03,458.58l14.8-27.29h4.12l4.31,27.29h-3.39l-1.26-7.85h-10.56l-4.19,7.86h-3.83ZM379.53,447.92h8.64l-1.01-6.86c-.23-1.65-.41-2.92-.51-3.79-.15-1.21-.21-2.2-.21-3-.61,1.6-1.48,3.46-2.6,5.57l-4.31,8.08h0ZM400.34,438.81h4.79l1.78,15.77,8.79-15.77h4.7l-4.04,19.77h-3.19l3.3-15.94-8.87,15.94h-2.86l-1.87-16.55-3.38,16.55h-3.19l4.06-19.77h0ZM433.87,438.81h3.14l-1.76,8.45.25.03c.68,0,1.33-.3,1.94-.9.61-.6,1.39-1.72,2.35-3.36,1.03-1.77,1.97-2.92,2.82-3.43.85-.51,1.71-.77,2.62-.77.63,0,1.29.11,1.99.34l-.73,2.01c-.43-.17-.79-.26-1.07-.26-.53,0-1,.19-1.41.58-.4.39-.92,1.18-1.54,2.38-1.31,2.46-2.78,3.97-4.41,4.55.57.21,1.11.55,1.61,1.02.51.47,1.03,1.42,1.58,2.85l2.37,6.31h-3.32l-1.87-5.03c-.57-1.56-1.09-2.62-1.56-3.17-.47-.55-1.14-.9-2.01-1.06l-1.93,9.25h-3.17l1.9-9.25c-.33,0-.64.05-.92.15-.29.1-.59.25-.91.47-.58.38-1.54,1.49-2.88,3.33l-3.91,5.3h-3.91s5.01-6.58,5.01-6.58c1.46-1.93,3.03-3.12,4.7-3.59-.72-.48-1.26-1.04-1.6-1.7-.35-.66-.68-1.87-1-3.63-.15-.86-.32-1.44-.53-1.73-.21-.3-.51-.44-.92-.44-.3,0-.75.09-1.37.26l.21-2.14c.26-.06.54-.11.83-.15.29-.04.57-.06.85-.06,1.13,0,1.93.33,2.41.99.49.6.91,1.75,1.25,3.42.35,1.67.73,2.76,1.14,3.29.41.51,1.06.77,1.96.77l1.8-8.46h0ZM459.34,455c-2.27,2.68-4.57,4.02-6.9,4.02-1.42,0-2.6-.42-3.55-1.26-.94-.84-1.4-1.91-1.4-3.21,0-.9.2-2.34.6-4.34l2.28-11.41h3.23l-2.53,12.64c-.21,1.04-.32,1.87-.32,2.49,0,.76.21,1.34.64,1.75.44.39,1.08.58,1.91.58,1.23,0,2.41-.41,3.52-1.25,1.11-.83,1.92-1.82,2.45-2.98.49-1.1.94-2.66,1.36-4.69l1.71-8.54h3.22l-3.95,19.77h-2.97l.71-3.58h0ZM472.12,438.81h14.25l-4.03,19.77h-3.2l3.53-16.96h-7.95l-2.44,11.79c-.41,2.02-.97,3.43-1.67,4.23-.7.8-1.67,1.2-2.91,1.2-.38,0-.79-.02-1.23-.06-.45-.04-.98-.1-1.6-.2l.59-2.79,1.36.05c.81,0,1.35-.2,1.59-.62.24-.41.61-1.72,1.11-3.94l2.6-12.47h0ZM487.27,458.58l3.95-19.77h3.23l-.66,3.25c2.01-2.47,4.09-3.7,6.24-3.7,1.25,0,2.26.31,3.03.93.74.58,1.25,1.51,1.53,2.77.94-1.21,1.95-2.14,3.03-2.76,1.08-.63,2.2-.94,3.37-.94,1.56,0,2.73.38,3.53,1.12.8.75,1.2,1.87,1.2,3.36,0,.65-.14,1.65-.41,3l-2.55,12.74h-3.22l2.6-13.07c.11-.55.19-1,.25-1.37.06-.38.09-.68.09-.92,0-.69-.19-1.21-.56-1.56-.38-.35-.94-.52-1.68-.52-1.09,0-2.17.37-3.21,1.11-1.05.74-1.81,1.62-2.3,2.64-.42.97-.83,2.34-1.21,4.11l-1.93,9.59h-3.22l2.68-13.35c.19-.95.29-1.6.29-1.93,0-.67-.21-1.2-.61-1.58-.4-.39-.9-.58-1.48-.58-.55,0-1.09.1-1.61.28-.53.18-1.07.48-1.62.88-1.05.76-1.85,1.7-2.38,2.83-.49,1.06-.91,2.43-1.27,4.11l-1.87,9.35h-3.22ZM540.41,438.81h3.26l-4.09,19.77h-3.24l4.08-19.77h0ZM521.75,438.81h3.22l-1.62,7.64h3.44c2.18,0,3.74.17,4.68.5.93.34,1.67.95,2.21,1.84.55.89.82,1.87.82,2.97,0,.66-.09,1.3-.27,1.92-.18.62-.46,1.25-.84,1.86-.71,1.19-1.61,2-2.68,2.41-1.07.41-2.74.62-5,.62h-8.05l4.08-19.77h0ZM521.41,455.9h4.11c1.59,0,2.72-.11,3.39-.34.67-.22,1.23-.63,1.69-1.23.45-.6.68-1.31.68-2.14,0-.76-.2-1.4-.6-1.91-.4-.52-.86-.83-1.38-.94-.24-.05-.61-.09-1.1-.13-.49-.04-1.07-.06-1.74-.06h-3.67l-1.37,6.74h0ZM548.57,438.81h3.19l-1.71,8.24h8.79l1.67-8.24h3.15l-3.98,19.77h-3.21l1.83-8.85h-8.75l-1.83,8.85h-3.19l4.04-19.77h0ZM574.74,458.58l3.95-19.77h3.23l-.66,3.25c2.01-2.47,4.09-3.7,6.24-3.7,1.25,0,2.26.31,3.03.93.74.58,1.25,1.51,1.53,2.77.94-1.21,1.95-2.14,3.03-2.76,1.08-.63,2.2-.94,3.37-.94,1.56,0,2.73.38,3.53,1.12.8.75,1.2,1.87,1.2,3.36,0,.65-.14,1.65-.41,3l-2.55,12.74h-3.22l2.6-13.07c.11-.55.19-1,.25-1.37.06-.38.09-.68.09-.92,0-.69-.19-1.21-.56-1.56-.38-.35-.94-.52-1.68-.52-1.09,0-2.17.37-3.21,1.11-1.05.74-1.81,1.62-2.3,2.64-.42.97-.83,2.34-1.21,4.11l-1.93,9.59h-3.22l2.68-13.35c.19-.95.29-1.6.29-1.93,0-.67-.21-1.2-.61-1.58-.4-.39-.9-.58-1.48-.58-.55,0-1.09.1-1.61.28-.53.18-1.07.48-1.62.88-1.05.76-1.85,1.7-2.38,2.83-.49,1.06-.91,2.43-1.27,4.11l-1.87,9.35h-3.22ZM609.95,458.58l-3.12-19.77h3.12l1.64,10.89c.17,1.09.39,3.04.66,5.83.61-1.43,1.41-3.04,2.36-4.83l6.33-11.89h3.41l-10.83,19.77-2.24,7.82-3.27.08,1.95-7.9h0ZM628.81,438.81h14.25l-4.03,19.77h-3.21l3.53-16.96h-7.95l-2.44,11.79c-.41,2.02-.97,3.43-1.67,4.23-.7.8-1.67,1.2-2.91,1.2-.38,0-.79-.02-1.23-.06-.45-.04-.98-.1-1.6-.2l.59-2.79,1.36.05c.82,0,1.35-.2,1.59-.62.24-.41.61-1.72,1.11-3.94l2.6-12.47h0ZM642.72,458.58l8.24-10.03-4.73-9.74h3.56l1.61,3.51c.69,1.56,1.22,2.83,1.6,3.78l5.46-7.3h3.94l-7.94,10,4.77,9.77h-3.57s-1.89-4.02-1.89-4.02c-.24-.52-.46-1.01-.66-1.47-.15-.34-.38-.91-.71-1.72l-5.63,7.21h-4.04ZM667.03,458.58l-3.12-19.77h3.12l1.64,10.89c.17,1.09.39,3.04.66,5.83.61-1.43,1.41-3.04,2.36-4.83l6.33-11.89h3.41l-10.83,19.77-2.24,7.82-3.27.08,1.95-7.9h0ZM685.27,458.58l-3.12-19.77h3.12l1.64,10.89c.17,1.09.39,3.04.66,5.83.61-1.43,1.41-3.04,2.36-4.83l6.33-11.89h3.41l-10.83,19.77-2.24,7.82-3.27.08,1.95-7.9h0ZM697.21,466.15l5.47-27.35h2.98l-.55,2.75c1.9-2.13,3.82-3.2,5.75-3.2,1.78,0,3.27.69,4.46,2.08,1.19,1.38,1.79,3.35,1.79,5.89,0,3.48-.93,6.46-2.8,8.95-1.87,2.5-4.03,3.74-6.48,3.74-2.25,0-4-1.2-5.26-3.61l-2.13,10.74h-3.23ZM703.56,451.16c0,1.7.4,2.98,1.21,3.83.81.85,1.79,1.28,2.96,1.28,1.87,0,3.36-1.11,4.49-3.33,1.13-2.22,1.69-4.46,1.69-6.72,0-1.34-.34-2.53-1.02-3.57-.67-1.04-1.67-1.56-2.97-1.56-1.82,0-3.33,1.07-4.54,3.21-1.21,2.14-1.82,4.44-1.82,6.88h0Z"/>
  <g>
    <ellipse class="cls-10" cx="420.94" cy="232.64" rx="209.28" ry="103.84"/>
    <path class="cls-5" d="M619.79,264.98c-27.42,41.53-106.06,71.51-198.85,71.51s-172.29-30.3-199.29-72.21l2.05-.64,9.63-3.01,67.99-21.34-6.4,17.79c-.54,1.5.99,2.94,2.46,2.3l60.02-25.92-20.35,30.11c-1.12,1.63.8,3.65,2.5,2.59l60.25-37.21v22.59c0,1.6,1.92,2.43,3.1,1.31l6.17-5.85,9.73,22.59c.61,1.41,2.59,1.5,3.33.13l15.77-30.11,73.2,37.02c1.66.86,3.39-1.09,2.34-2.66l-19.29-28.92c-.45-.64-.42-1.5.06-2.11l8.32-11.29,9.69,12.06c.86,1.06,2.5.86,3.1-.35l5.12-10.4,44.31,32.73c1.02.74,2.5.26,2.85-.96l4.61-15.17,47.42,15.33s.06.03.06.03c.03.03.06.03.1.06Z"/>
    <path class="cls-3" d="M630.22,232.81c0,.99-.03,1.95-.1,2.91-.03.83-.1,1.63-.19,2.43-.06.74-.16,1.47-.26,2.21-.06.51-.16,1.02-.26,1.54-.29,1.79-.7,3.58-1.22,5.34-.16.64-.35,1.28-.54,1.89-.06.22-.13.45-.22.67-.26.8-.54,1.6-.83,2.37-.22.61-.48,1.25-.77,1.86-.06.19-.16.42-.26.61l-.1-.03-.06-.03-134.79-65.4c-.83-.38-1.82-.13-2.34.64l-18.11,27.04-48.25-59.29c-.67-.77-1.82-.9-2.59-.22l-67.03,56.18-31.77-3.04c-.51-.06-1.02,0-1.5.22-8.73,3.94-96.75,43.8-101.77,46.07-.22-.42-.42-.8-.58-1.22-.26-.58-.51-1.18-.77-1.79-.51-1.22-.99-2.46-1.38-3.68-.26-.74-.48-1.44-.67-2.18-.74-2.37-1.25-4.77-1.6-7.2-.26-1.6-.42-3.23-.51-4.86-.06-.99-.1-2.02-.1-3.04,0-57.43,93.68-104.01,209.28-104.01s209.28,46.58,209.28,104.01Z"/>
  </g>
</svg>